<svg width="89" height="88" viewBox="0 0 89 88" fill="none" xmlns="http://www.w3.org/2000/svg">
<path d="M14.8333 8.8H2.96667C1.32907 8.8 0 10.1141 0 11.7333V23.4667C0 25.0859 1.32907 26.4 2.96667 26.4C4.60427 26.4 5.93333 25.0859 5.93333 23.4667V14.6667H14.8333C16.4709 14.6667 17.8 13.3525 17.8 11.7333C17.8 10.1141 16.4709 8.8 14.8333 8.8Z" fill="#46ADD8"/>
<path d="M86.0333 61.6C84.3957 61.6 83.0666 62.9141 83.0666 64.5333V73.3333H74.1666C72.529 73.3333 71.2 74.6475 71.2 76.2667C71.2 77.8859 72.529 79.2 74.1666 79.2H86.0333C87.6709 79.2 88.9999 77.8859 88.9999 76.2667V64.5333C88.9999 62.9141 87.6709 61.6 86.0333 61.6Z" fill="#46ADD8"/>
<path d="M86.0333 8.8H74.1666C72.529 8.8 71.2 10.1141 71.2 11.7333C71.2 13.3525 72.529 14.6667 74.1666 14.6667H83.0666V23.4667C83.0666 25.0859 84.3957 26.4 86.0333 26.4C87.6709 26.4 88.9999 25.0859 88.9999 23.4667V11.7333C88.9999 10.1141 87.6709 8.8 86.0333 8.8Z" fill="#46ADD8"/>
<path d="M14.8333 73.3333H5.93333V64.5333C5.93333 62.9141 4.60427 61.6 2.96667 61.6C1.32907 61.6 0 62.9141 0 64.5333V76.2667C0 77.8859 1.32907 79.2 2.96667 79.2H14.8333C16.4709 79.2 17.8 77.8859 17.8 76.2667C17.8 74.6475 16.4709 73.3333 14.8333 73.3333Z" fill="#46ADD8"/>
<path d="M17.8 20.5333H11.8667V67.4667H17.8V20.5333Z" fill="#46ADD8"/>
<path d="M29.6666 20.5333H23.7333V55.7333H29.6666V20.5333Z" fill="#46ADD8"/>
<path d="M41.5333 20.5333H35.6V55.7333H41.5333V20.5333Z" fill="#46ADD8"/>
<path d="M53.4 20.5333H47.4667V67.4667H53.4V20.5333Z" fill="#46ADD8"/>
<path d="M65.2667 20.5333H59.3334V55.7333H65.2667V20.5333Z" fill="#46ADD8"/>
<path d="M77.1333 20.5333H71.2V67.4667H77.1333V20.5333Z" fill="#46ADD8"/>
<path d="M29.6666 61.6H23.7333V67.4667H29.6666V61.6Z" fill="#46ADD8"/>
<path d="M41.5333 61.6H35.6V67.4667H41.5333V61.6Z" fill="#46ADD8"/>
<path d="M65.2667 61.6H59.3334V67.4667H65.2667V61.6Z" fill="#46ADD8"/>
</svg>
